P3
4 4
255
143 0 0  143 0 11  48 0 34  0 0 34  
143 0 0  143 5 11  48 16 34  0 16 34  
48 0 0  48 16 4  16 48 11  0 48 11  
0 0 0  0 16 0  0 48 0  0 48 0  
