P3
4 4
255
54 54 54  54 54 54  4 4 4  4 4 4  
54 54 54  54 54 54  4 4 4  4 4 4  
0 0 0  0 0 0  61 61 61  61 61 61  
0 0 0  0 0 0  61 61 61  61 61 61  
