P3
# Created by GIMP version 2.10.32 PNM plug-in
4 4
255
255
0
0
255
0
0
0
0
60
0
0
60
255
0
0
255
0
0
0
0
60
0
0
60
0
0
0
0
0
0
0
85
0
0
85
0
0
0
0
0
0
0
0
85
0
0
85
0
