P3
4 4
255
100 89 69  100 89 69  11 10 8  11 10 8  
100 89 69  100 89 69  11 10 8  11 10 8  
0 0 0  0 0 0  65 58 45  65 58 45  
0 0 0  0 0 0  65 58 45  65 58 45  
