P3
4 4
255
255 0 0  255 0 15  64 0 105  0 0 105  
255 0 0  255 0 15  64 21 105  0 21 105  
64 0 0  64 21 0  0 149 15  0 149 15  
0 0 0  0 21 0  0 149 0  0 149 0  
